<svg width="26" height="20" viewBox="0 0 26 20" fill="none" xmlns="http://www.w3.org/2000/svg">
<path d="M6.75 6.25L11.4375 10C11.8809 10.355 12.432 10.5484 13 10.5484C13.568 10.5484 14.1191 10.355 14.5625 10L19.25 6.25M24.25 16.25V3.75C24.25 3.08696 23.9866 2.45107 23.5178 1.98223C23.0489 1.51339 22.413 1.25 21.75 1.25H4.25C3.58696 1.25 2.95107 1.51339 2.48223 1.98223C2.01339 2.45107 1.75 3.08696 1.75 3.75V16.25C1.75 16.913 2.01339 17.5489 2.48223 18.0178C2.95107 18.4866 3.58696 18.75 4.25 18.75H21.75C22.413 18.75 23.0489 18.4866 23.5178 18.0178C23.9866 17.5489 24.25 16.913 24.25 16.25Z" stroke="#53CC6C" stroke-width="2" stroke-linecap="round" stroke-linejoin="round"/>
</svg>
