<svg width="64" height="64" viewBox="0 0 64 64" fill="none" xmlns="http://www.w3.org/2000/svg">
<path fill-rule="evenodd" clip-rule="evenodd" d="M42.3867 48.1876V56.2596H52.4667C58.4187 50.7036 61.8307 42.4836 61.8307 32.7116C61.8307 30.5356 61.6547 28.3556 61.3027 26.2236H31.5547V38.5316H48.6027C47.9067 42.4476 45.6587 45.9596 42.3867 48.1876Z" fill="#D8D7D7"/>
<path fill-rule="evenodd" clip-rule="evenodd" d="M31.5548 63.9999C40.0548 63.9999 47.2428 61.1559 52.4588 56.2679L52.4668 56.2559L42.3868 48.1879C42.3508 48.2119 42.3228 48.2439 42.2908 48.2679C39.4428 50.2239 35.8028 51.3319 31.5548 51.3319C23.4308 51.3319 16.5548 45.8279 13.9748 38.4199H3.49878V46.5919C8.87878 57.2759 19.7148 63.9999 31.5548 63.9999Z" fill="#D8D7D7"/>
<mask id="mask0_27830_257" style="mask-type:luminance" maskUnits="userSpaceOnUse" x="0" y="17" width="14" height="30">
<path d="M0 17.3159H13.976V46.5959H0V17.3159Z" fill="white"/>
</mask>
<g mask="url(#mask0_27830_257)">
<path fill-rule="evenodd" clip-rule="evenodd" d="M13.8555 38.1349C12.5475 34.1909 12.5435 29.8909 13.8435 25.9029L13.8555 25.9109C13.8715 25.8629 13.8995 25.8189 13.9155 25.7709L13.9755 17.3149H3.57551C3.51951 17.4309 3.43951 17.5309 3.38351 17.6469C-1.12849 26.6669 -1.12849 37.3349 3.38351 46.3549V46.3989C3.41951 46.4669 3.46351 46.5269 3.49951 46.5949L13.9755 38.4229C13.9395 38.3229 13.8915 38.2349 13.8555 38.1349Z" fill="#D8D7D7"/>
</g>
<mask id="mask1_27830_257" style="mask-type:luminance" maskUnits="userSpaceOnUse" x="3" y="0" width="50" height="26">
<path d="M3.57593 0H52.6759V25.772H3.57593V0Z" fill="white"/>
</mask>
<g mask="url(#mask1_27830_257)">
<path fill-rule="evenodd" clip-rule="evenodd" d="M3.57593 17.3164L13.9119 25.7724C16.4519 18.2444 23.3719 12.6684 31.5559 12.6684C36.0719 12.5804 40.4079 14.3124 43.6479 17.4684L52.6759 8.31243C46.9319 2.89243 39.3999 -0.0875699 31.5559 0.000430103C19.7639 0.000430103 8.97993 6.71643 3.57593 17.3164Z" fill="#D8D7D7"/>
</g>
</svg>
