<svg width="58" height="64" viewBox="0 0 58 64" fill="none" xmlns="http://www.w3.org/2000/svg">
<g clip-path="url(#clip0_27830_276)">
<path d="M55.2746 30.2757C53.8672 27.8747 51.8873 25.9498 49.4122 24.5008C47.5625 23.4331 45.6446 22.7555 43.4832 22.4644V14.8355C45.6446 13.9255 46.9859 11.9116 46.9859 9.56204C46.9859 6.35953 44.3957 3.76437 41.1684 3.76437C37.9384 3.76437 35.3029 6.35953 35.3029 9.56204C35.3029 11.9116 36.5668 13.9255 38.7283 14.8355V22.4679C36.9991 22.7156 35.2061 23.2501 33.5686 24.0713C30.2242 21.5529 19.2575 13.2908 12.8422 8.46522C12.9943 7.92133 13.1115 7.36073 13.1115 6.76927C13.1115 3.22219 10.2144 0.347168 6.63566 0.347168C3.0569 0.347168 0.161133 3.22219 0.161133 6.76927C0.161133 10.3159 3.05994 13.1918 6.6387 13.1918C7.85943 13.1918 8.98851 12.8377 9.96289 12.2557L11.3167 13.274L29.9198 26.5641C28.9365 27.4593 28.0204 28.4777 27.2878 29.6204C25.803 31.9498 24.8956 34.5128 24.8956 37.3085V37.8919C24.8956 39.8544 25.2717 41.7072 25.9123 43.4477C26.4764 44.9676 27.3011 46.3493 28.3226 47.5987L22.1485 53.7353C21.2537 53.4051 20.282 53.3374 19.3494 53.5402C18.4169 53.7429 17.5629 54.2077 16.8895 54.8789C16.4233 55.3388 16.0539 55.8859 15.8025 56.4884C15.5511 57.0909 15.4227 57.737 15.425 58.389C15.4255 59.7147 15.9463 60.9606 16.8921 61.898C17.3557 62.3606 17.9073 62.7273 18.5148 62.977C19.1224 63.2267 19.7739 63.3544 20.4315 63.3527C21.0894 63.3543 21.7411 63.2266 22.3489 62.9769C22.9566 62.7272 23.5084 62.3605 23.9723 61.898C24.4382 61.438 24.8075 60.8912 25.0591 60.2889C25.3105 59.6867 25.4393 59.0409 25.4377 58.389C25.4377 57.876 25.3577 57.3754 25.2073 56.8997L31.5888 50.5715C32.4638 51.1707 33.4087 51.6751 34.4246 52.1101C36.4281 52.969 38.6396 53.4923 41.0599 53.4923H41.5034C44.1791 53.4923 46.7032 52.8692 49.0758 51.5946C51.5761 50.2474 53.5331 48.4053 55.0114 46.0536C56.4975 43.6955 57.3158 41.09 57.3158 38.2236V38.0804C57.3158 35.2606 56.6575 32.6591 55.2746 30.2757ZM47.4774 43.5506C45.7452 45.4592 43.7542 46.6348 41.5034 46.6348H41.1326C39.8469 46.6348 38.5894 46.2825 37.3583 45.6417C35.9707 44.9362 34.9161 43.93 34.0528 42.6557C33.1606 41.405 32.6764 40.0395 32.6764 38.5917V38.152C32.6764 36.7287 32.9518 35.379 33.6461 34.1043C34.3883 32.7109 35.3906 31.6275 36.7238 30.766C38.0327 29.9105 39.4306 29.4909 40.9876 29.4909H41.1326C42.5443 29.4909 43.8809 29.7669 45.1422 30.4068C46.4274 31.0891 47.4774 32.0213 48.2913 33.2475C49.0819 34.4742 49.5523 35.7973 49.7036 37.2386C49.7273 37.5382 49.7394 37.8451 49.7394 38.1383C49.7394 40.0944 48.9856 41.9061 47.4774 43.5506Z" fill="#D8D7D7"/>
</g>
<defs>
<clipPath id="clip0_27830_276">
<rect width="58" height="64" fill="white"/>
</clipPath>
</defs>
</svg>
