<svg width="48" height="38" viewBox="0 0 48 38" fill="none" xmlns="http://www.w3.org/2000/svg">
<path d="M42.75 1.29993C42.2343 0.966274 41.6444 0.76442 41.0324 0.71211C40.4204 0.6598 39.8049 0.758635 39.24 0.999928L20.73 8.28993C20.2922 8.46976 19.8233 8.56151 19.35 8.55993H7.5C6.50544 8.55993 5.55161 8.95502 4.84835 9.65828C4.14509 10.3615 3.75 11.3154 3.75 12.3099V12.6099H0V21.6099H3.75V21.9999C3.7735 22.9788 4.17894 23.9097 4.87967 24.5936C5.5804 25.2775 6.52084 25.6602 7.5 25.6599L12 35.1999C12.3047 35.8424 12.7844 36.3858 13.3841 36.7679C13.9837 37.15 14.679 37.3552 15.39 37.3599H17.28C18.2694 37.352 19.2155 36.9534 19.9123 36.251C20.6091 35.5486 21 34.5993 21 33.6099V26.0199L39.24 33.3099C39.6892 33.4864 40.1673 33.578 40.65 33.5799C41.3989 33.5661 42.1279 33.337 42.75 32.9199C43.2434 32.5868 43.6504 32.1409 43.9374 31.6192C44.2243 31.0976 44.3829 30.5151 44.4 29.9199V4.38993C44.3973 3.77948 44.2455 3.17892 43.958 2.64043C43.6704 2.10193 43.2558 1.64178 42.75 1.29993ZM17.25 12.3099V21.9999H7.5V12.3099H17.25ZM17.25 33.6099H15.36L11.67 25.6599H17.25V33.6099ZM22.11 22.4499C21.7537 22.268 21.3823 22.1175 21 21.9999V12.0999C21.3786 12.0212 21.7499 11.9108 22.11 11.7699L40.65 4.38993V29.8299L22.11 22.4499ZM44.49 13.3599V20.8599C45.4846 20.8599 46.4384 20.4648 47.1417 19.7616C47.8449 19.0583 48.24 18.1045 48.24 17.1099C48.24 16.1154 47.8449 15.1615 47.1417 14.4583C46.4384 13.755 45.4846 13.3599 44.49 13.3599Z" fill="#53CC6C"/>
</svg>
