<svg width="38" height="43" viewBox="0 0 38 43" fill="none" xmlns="http://www.w3.org/2000/svg">
<path d="M31.8398 0.594094L32.6118 0.706094C33.8118 0.896094 35.1558 1.21409 35.9818 2.04009C36.8078 2.86609 37.1278 4.21209 37.3178 5.41209L37.4298 6.18209C37.6818 8.00209 37.7478 10.3881 37.3178 13.0361C36.4698 18.2621 33.6878 24.4961 26.7018 29.3261C26.6712 29.6832 26.6599 30.0417 26.6678 30.4001L26.7018 31.4861C26.7218 32.2101 26.7098 32.9321 26.5098 33.6261C26.1298 34.9461 24.7758 35.8161 23.5098 36.4401L22.8898 36.7341L22.0898 37.0861L21.5438 37.3061C20.1298 37.8461 18.4238 38.2241 17.3078 37.1061C16.8018 36.6001 16.5678 35.9121 16.3798 35.2241L16.2878 34.8801C15.9678 33.6661 15.6058 32.4601 15.1538 31.2921C15.029 31.4438 14.8969 31.5893 14.7578 31.7281C13.6678 32.8161 12.1898 33.3641 10.7118 33.7881L9.72981 34.0581L8.74981 34.3181L7.79381 34.5581L6.92982 34.7581L5.89581 34.9781L5.24981 35.1041C4.92763 35.1637 4.59578 35.1441 4.28287 35.0469C3.96996 34.9497 3.68539 34.7779 3.4537 34.5462C3.22201 34.3145 3.05016 34.0299 2.95297 33.717C2.85578 33.4041 2.83616 33.0723 2.89581 32.7501L3.11782 31.6481L3.37582 30.4921L3.62381 29.4721L4.07382 27.7821C4.51982 26.1421 5.06182 24.4521 6.27382 23.2421L6.47182 23.0521L4.94582 22.5041L3.41181 21.9761C2.51381 21.6801 1.56982 21.3681 0.917815 20.7161C-0.274185 19.5241 0.231815 17.6641 0.825815 16.2021L1.15781 15.4281L1.43182 14.8261C2.06582 13.4781 2.96581 11.9261 4.39781 11.5141C5.09181 11.3141 5.81182 11.3021 6.53782 11.3201L7.62381 11.3561C7.98381 11.3654 8.34181 11.3541 8.69781 11.3221C13.5258 4.33609 19.7618 1.55409 24.9878 0.706094C27.2539 0.332705 29.5627 0.294967 31.8398 0.594094ZM25.6278 4.65409C21.2318 5.36809 15.8898 7.7221 11.7218 13.9921C11.2158 14.7521 10.3618 15.1141 9.49181 15.2521C8.99981 15.3321 8.50381 15.3521 8.00581 15.3521L6.51182 15.3301C6.26381 15.3288 6.01515 15.3328 5.76581 15.3421C5.15781 16.1501 4.73382 17.1101 4.41582 18.0641L7.41582 19.1541L8.64981 19.6201C10.9058 20.5041 13.0898 21.5741 14.7698 23.2541C17.5998 26.0841 19.0378 29.7861 20.0778 33.5681C20.9898 33.2481 21.9058 32.8401 22.6818 32.2581L22.6938 31.5121L22.6718 30.0201C22.6718 29.5241 22.6918 29.0281 22.7718 28.5321C22.9078 27.6621 23.2718 26.8081 24.0318 26.3021C30.3018 22.1341 32.6558 16.7921 33.3698 12.3961C33.7298 10.1761 33.6698 8.19209 33.4678 6.73009C33.39 6.12358 33.2609 5.52476 33.0818 4.94009C32.4971 4.76166 31.8983 4.6332 31.2918 4.55609C29.4091 4.31211 27.5008 4.3438 25.6278 4.65409ZM9.09982 26.0701C8.39982 26.9161 8.07382 28.0261 7.81182 29.1261L7.59581 30.0621L7.48582 30.5141L8.87381 30.1881C9.97381 29.9281 11.0858 29.5981 11.9298 28.8981C12.3048 28.5228 12.5154 28.0139 12.5152 27.4834C12.515 26.9528 12.3041 26.4441 11.9288 26.0691C11.5535 25.6941 11.0446 25.4835 10.5141 25.4837C9.98357 25.4839 9.47483 25.6948 9.09982 26.0701ZM20.4138 11.9301C20.7852 11.5586 21.2261 11.2639 21.7114 11.0628C22.1967 10.8616 22.7168 10.7581 23.2421 10.758C23.7674 10.7579 24.2876 10.8613 24.7729 11.0622C25.2583 11.2631 25.6993 11.5577 26.0708 11.9291C26.4423 12.3005 26.737 12.7414 26.9382 13.2267C27.1393 13.7119 27.2428 14.2321 27.2429 14.7574C27.243 15.2827 27.1396 15.8029 26.9387 16.2882C26.7378 16.7736 26.4432 17.2146 26.0718 17.5861C25.3215 18.3364 24.3039 18.7579 23.2428 18.7579C22.1817 18.7579 21.1641 18.3364 20.4138 17.5861C19.6635 16.8358 19.242 15.8182 19.242 14.7571C19.242 13.696 19.6635 12.6784 20.4138 11.9281V11.9301Z" fill="#53CC6C"/>
</svg>
