<svg width="64" height="64" viewBox="0 0 64 64" fill="none" xmlns="http://www.w3.org/2000/svg">
<g clip-path="url(#clip0_27830_252)">
<path d="M13.3321 40.3568C13.3321 44.0142 10.3762 46.9701 6.71883 46.9701C3.06151 46.9701 0.105591 44.0142 0.105591 40.3568C0.105591 36.6995 3.06151 33.7437 6.71883 33.7437H13.3321V40.3568ZM16.6387 40.3568C16.6387 36.6995 19.5947 33.7437 23.2519 33.7437C26.9092 33.7437 29.8652 36.6995 29.8652 40.3568V56.8899C29.8652 60.5473 26.9092 63.5032 23.2519 63.5032C19.5947 63.5032 16.6387 60.5473 16.6387 56.8899V40.3568Z" fill="#D8D7D7"/>
<path d="M23.252 13.8031C19.5947 13.8031 16.6387 10.8472 16.6387 7.1899C16.6387 3.53257 19.5947 0.57666 23.252 0.57666C26.9093 0.57666 29.8652 3.53257 29.8652 7.1899V13.8031H23.252ZM23.252 17.1599C26.9093 17.1599 29.8652 20.1158 29.8652 23.7731C29.8652 27.4304 26.9093 30.3864 23.252 30.3864H6.66878C3.01146 30.3864 0.055542 27.4304 0.055542 23.7731C0.055542 20.1158 3.01146 17.1599 6.66878 17.1599H23.252Z" fill="#D8D7D7"/>
<path d="M49.7553 23.7731C49.7553 20.1158 52.7112 17.1599 56.3686 17.1599C60.0258 17.1599 62.9817 20.1158 62.9817 23.7731C62.9817 27.4304 60.0258 30.3864 56.3686 30.3864H49.7553V23.7731ZM46.4487 23.7731C46.4487 27.4304 43.4927 30.3864 39.8354 30.3864C36.1781 30.3864 33.2222 27.4304 33.2222 23.7731V7.1899C33.2222 3.53257 36.1781 0.57666 39.8354 0.57666C43.4927 0.57666 46.4487 3.53257 46.4487 7.1899V23.7731Z" fill="#D8D7D7"/>
<path d="M39.8354 50.2767C43.4927 50.2767 46.4487 53.2326 46.4487 56.8899C46.4487 60.5473 43.4927 63.5032 39.8354 63.5032C36.1781 63.5032 33.2222 60.5473 33.2222 56.8899V50.2767H39.8354ZM39.8354 46.9701C36.1781 46.9701 33.2222 44.0142 33.2222 40.3568C33.2222 36.6995 36.1781 33.7437 39.8354 33.7437H56.4186C60.0759 33.7437 63.0319 36.6995 63.0319 40.3568C63.0319 44.0142 60.0759 46.9701 56.4186 46.9701H39.8354Z" fill="#D8D7D7"/>
</g>
<defs>
<clipPath id="clip0_27830_252">
<rect width="64" height="64" fill="white"/>
</clipPath>
</defs>
</svg>
