<svg width="26" height="26" viewBox="0 0 26 26" fill="none" xmlns="http://www.w3.org/2000/svg">
<path d="M21.8125 4.13744C20.6663 2.98008 19.3013 2.0624 17.7969 1.4379C16.2925 0.813393 14.6789 0.494549 13.05 0.499945C6.225 0.499945 0.6625 6.06245 0.6625 12.8874C0.6625 15.0749 1.2375 17.1999 2.3125 19.0749L0.5625 25.4999L7.125 23.7749C8.9375 24.7624 10.975 25.2874 13.05 25.2874C19.875 25.2874 25.4375 19.7249 25.4375 12.8999C25.4375 9.58745 24.15 6.47495 21.8125 4.13744ZM13.05 23.1874C11.2 23.1874 9.3875 22.6874 7.8 21.7499L7.425 21.5249L3.525 22.5499L4.5625 18.7499L4.3125 18.3624C3.28443 16.7213 2.73866 14.824 2.7375 12.8874C2.7375 7.21245 7.3625 2.58745 13.0375 2.58745C15.7875 2.58745 18.375 3.66245 20.3125 5.61245C21.272 6.56727 22.0324 7.70312 22.5495 8.95411C23.0667 10.2051 23.3302 11.5463 23.325 12.8999C23.35 18.5749 18.725 23.1874 13.05 23.1874ZM18.7 15.4874C18.3875 15.3374 16.8625 14.5874 16.5875 14.4749C16.3 14.3749 16.1 14.3249 15.8875 14.6249C15.675 14.9374 15.0875 15.6374 14.9125 15.8374C14.7375 16.0499 14.55 16.0749 14.2375 15.9124C13.925 15.7624 12.925 15.4249 11.75 14.3749C10.825 13.5499 10.2125 12.5374 10.025 12.2249C9.85 11.9124 10 11.7499 10.1625 11.5874C10.3 11.4499 10.475 11.2249 10.625 11.0499C10.775 10.8749 10.8375 10.7374 10.9375 10.5374C11.0375 10.3249 10.9875 10.1499 10.9125 9.99995C10.8375 9.84995 10.2125 8.32495 9.9625 7.69995C9.7125 7.09995 9.45 7.17495 9.2625 7.16245H8.6625C8.45 7.16245 8.125 7.23744 7.8375 7.54994C7.5625 7.86244 6.7625 8.61244 6.7625 10.1374C6.7625 11.6624 7.875 13.1374 8.025 13.3374C8.175 13.5499 10.2125 16.6749 13.3125 18.0124C14.05 18.3374 14.625 18.5249 15.075 18.6624C15.8125 18.8999 16.4875 18.8624 17.025 18.7874C17.625 18.6999 18.8625 18.0374 19.1125 17.3124C19.375 16.5874 19.375 15.9749 19.2875 15.8374C19.2 15.6999 19.0125 15.6374 18.7 15.4874Z" fill="#53CC6C"/>
</svg>
