<svg width="38" height="30" viewBox="0 0 38 30" fill="none" xmlns="http://www.w3.org/2000/svg">
<path d="M19.4646 0C20.4792 0.00562535 23.0178 0.0300018 25.7159 0.136883L26.6735 0.178136C29.3888 0.303769 32.1021 0.521282 33.4493 0.89068C35.2449 1.38946 36.6547 2.8408 37.1317 4.68217C37.8917 7.60735 37.9867 13.3115 37.9981 14.6934L38 14.9784V15.3047C37.9867 16.6867 37.8917 22.3926 37.1317 25.316C36.649 27.1629 35.2373 28.6162 33.4493 29.1074C32.1021 29.4768 29.3888 29.6944 26.6735 29.82L25.7159 29.8631C23.0178 29.9681 20.4792 29.9944 19.4646 29.9981L19.0181 30H18.5335C16.3864 29.9869 7.40657 29.8912 4.54883 29.1074C2.75514 28.6087 1.34337 27.1573 0.866443 25.316C0.106405 22.3908 0.0114006 16.6867 0 15.3047V14.6934C0.0114006 13.3115 0.106405 7.60548 0.866443 4.68217C1.34907 2.83518 2.76084 1.38196 4.55073 0.892555C7.40657 0.106881 16.3883 0.0112507 18.5354 0H19.4646ZM15.1989 8.43803V21.5638L26.5994 15.0009L15.1989 8.43803Z" fill="#53CC6C"/>
</svg>
