<svg width="63" height="64" viewBox="0 0 63 64" fill="none" xmlns="http://www.w3.org/2000/svg">
<g clip-path="url(#clip0_27830_270)">
<mask id="mask0_27830_270" style="mask-type:luminance" maskUnits="userSpaceOnUse" x="0" y="0" width="63" height="64">
<path d="M62.9977 0.694824H0.651367V63.2291H62.9977V0.694824Z" fill="white"/>
</mask>
<g mask="url(#mask0_27830_270)">
<path d="M39.6176 31.9756C39.6186 34.2304 39.2131 36.4668 38.4206 38.5769C36.3161 39.3717 34.0859 39.779 31.8372 39.7795H31.8108C29.4953 39.7765 27.2766 39.352 25.2294 38.5779C24.4365 36.4676 24.0305 34.2308 24.0312 31.9756V31.9483C24.0302 29.6939 24.4352 27.4578 25.227 25.3479C27.3313 24.5517 29.562 24.1442 31.8111 24.1451H31.8374C34.0863 24.1441 36.3167 24.5515 38.4208 25.3477C39.2134 27.4574 39.619 29.6935 39.6178 31.948L39.6176 31.9756ZM62.5647 26.7508H44.3683L57.2343 13.8451C56.2245 12.4222 55.098 11.0864 53.8667 9.85143V9.85046C52.6353 8.61688 51.3038 7.488 49.8859 6.47557L37.019 19.3814V1.13012C35.3077 0.841368 33.5754 0.695771 31.8401 0.694824H31.8079C30.0428 0.695801 28.3139 0.846277 26.6291 1.13012V19.3814L13.7622 6.47557C12.3441 7.48774 11.0132 8.61737 9.78338 9.85265L9.7766 9.85759C8.54729 11.0909 7.42243 12.4247 6.41353 13.8451L19.2814 26.7508H1.08536C1.08536 26.7508 0.651367 30.1787 0.651367 31.9512V31.9727C0.651367 33.7451 0.801145 35.4821 1.08536 37.173H19.2817L6.41377 50.0788C8.43801 52.928 10.9214 55.4189 13.7622 57.4493L26.6291 44.5425V62.7947C28.3385 63.082 30.0687 63.2273 31.8019 63.2291H31.846C33.5792 63.2274 35.3094 63.0822 37.0188 62.7947V44.5425L49.8869 57.4493C51.3044 56.4365 52.6356 55.3073 53.8667 54.0734L53.8696 54.0705C55.0992 52.8355 56.2246 51.5004 57.2343 50.0788L44.3663 37.173H62.5647C62.8479 35.4851 62.9958 33.7532 62.9977 31.9847V31.9392C62.9958 30.1707 62.8479 28.4387 62.5647 26.7508Z" fill="#D8D7D7"/>
</g>
</g>
<defs>
<clipPath id="clip0_27830_270">
<rect width="63" height="64" fill="white"/>
</clipPath>
</defs>
</svg>
