<svg width="12" height="22" viewBox="0 0 12 22" fill="none" xmlns="http://www.w3.org/2000/svg">
<path d="M11.6596 21.6564C11.7675 21.5468 11.8531 21.4167 11.9115 21.2734C11.9699 21.1302 12 20.9767 12 20.8216C12 20.6666 11.9699 20.513 11.9115 20.3698C11.8531 20.2266 11.7675 20.0964 11.6596 19.9868L2.80186 10.9858L11.6596 1.98477C11.8647 1.76105 11.9764 1.46514 11.9711 1.15938C11.9658 0.85363 11.8439 0.561907 11.6311 0.345673C11.4183 0.129439 11.1312 0.00557805 10.8304 0.000183398C10.5295 -0.00521125 10.2383 0.108282 10.0181 0.316753L0.339659 10.1518C0.122164 10.3731 0 10.673 0 10.9858C0 11.2986 0.122164 11.5985 0.339659 11.8198L10.0181 21.6548C10.2359 21.8759 10.5311 22 10.8388 22C11.1466 22 11.4418 21.8774 11.6596 21.6564Z" fill="#5F5F5F"/>
</svg>
