<svg width="12" height="22" viewBox="0 0 12 22" fill="none" xmlns="http://www.w3.org/2000/svg">
<path d="M0.340434 21.6564C0.232508 21.5468 0.146892 21.4167 0.088479 21.2734C0.0300655 21.1302 0 20.9767 0 20.8216C0 20.6666 0.0300655 20.513 0.088479 20.3698C0.146892 20.2266 0.232508 20.0964 0.340434 19.9868L9.19814 10.9858L0.340434 1.98477C0.135282 1.76105 0.0235939 1.46514 0.028903 1.15938C0.0342112 0.85363 0.156102 0.561907 0.368894 0.345673C0.581684 0.129439 0.868763 0.00557805 1.16965 0.000183398C1.47053 -0.00521125 1.76173 0.108282 1.9819 0.316753L11.6603 10.1518C11.8778 10.3731 12 10.673 12 10.9858C12 11.2986 11.8778 11.5985 11.6603 11.8198L1.9819 21.6548C1.76413 21.8759 1.46894 22 1.16117 22C0.85339 22 0.558199 21.8774 0.340434 21.6564Z" fill="#5F5F5F"/>
</svg>
