<svg width="30" height="30" viewBox="0 0 30 30" fill="none" xmlns="http://www.w3.org/2000/svg">
<path fill-rule="evenodd" clip-rule="evenodd" d="M15 0C23.2842 0 30 6.71578 30 15C30 22.487 24.5147 28.6925 17.3438 29.8178V19.3359H20.8389L21.5039 15H17.3438V12.1863C17.3438 11.8901 17.38 11.5958 17.4634 11.3208C17.6722 10.6323 18.1767 10.0655 19.1482 9.89575C19.3425 9.86182 19.5554 9.84375 19.7883 9.84375H21.6797V6.15234C21.6797 6.15234 19.9631 5.85938 18.322 5.85938C18.322 5.85938 18.322 5.85938 18.3219 5.85938C18.2149 5.85938 18.109 5.86141 18.0043 5.86545C17.5852 5.88163 17.1852 5.9301 16.8063 6.01009C15.3864 6.30985 14.2633 7.05224 13.5455 8.19672C12.9712 9.11243 12.6562 10.2855 12.6562 11.6953V15H8.84766V19.3359H12.6562V29.8178C5.48531 28.6925 0 22.4869 0 15C0 6.71578 6.71578 0 15 0Z" fill="#53CC6C"/>
</svg>
