<svg width="30" height="30" viewBox="0 0 30 30" fill="none" xmlns="http://www.w3.org/2000/svg">
<path fill-rule="evenodd" clip-rule="evenodd" d="M7.03125 0H22.9688C26.852 0 30 3.148 30 7.03125V22.9688C30 26.852 26.852 30 22.9688 30H7.03125C3.148 30 0 26.852 0 22.9688V7.03125C0 3.148 3.148 0 7.03125 0ZM25.0764 25.51H21.6463C21.522 25.51 21.4027 25.4606 21.3148 25.3727C21.2269 25.2848 21.1775 25.1655 21.1775 25.0412V18.6704C21.1775 17.0394 21.1485 14.9399 18.9061 14.9399C16.6314 14.9399 16.2833 16.7168 16.2833 18.5516V25.0406C16.2833 25.1649 16.2339 25.2842 16.146 25.3721C16.0581 25.46 15.9389 25.5094 15.8146 25.5094H12.3847C12.2604 25.5094 12.1412 25.46 12.0533 25.3721C11.9654 25.2842 11.916 25.1649 11.916 25.0406V11.9133C11.916 11.789 11.9654 11.6697 12.0533 11.5818C12.1412 11.4939 12.2604 11.4445 12.3847 11.4445H15.6398C15.7642 11.4445 15.8834 11.4939 15.9713 11.5818C16.0592 11.6697 16.1086 11.789 16.1086 11.9133V13.3293C16.1087 13.3374 16.1114 13.3454 16.1164 13.3519C16.1214 13.3583 16.1284 13.363 16.1363 13.3651C16.1442 13.3673 16.1526 13.3668 16.1602 13.3637C16.1678 13.3606 16.1741 13.3552 16.1783 13.3481C17.0346 11.8997 18.6214 11.0323 20.3041 11.0948C24.7307 11.0948 25.5469 14.0064 25.5469 17.7942L25.5451 25.0413C25.5451 25.1656 25.4957 25.2848 25.4078 25.3727C25.3199 25.4606 25.2007 25.51 25.0764 25.51ZM6.98812 9.52195C5.5977 9.52195 4.45312 8.37797 4.45312 6.98766C4.45312 5.59734 5.59711 4.45312 6.98766 4.45312C8.37785 4.45312 9.52184 5.59699 9.52207 6.98707C9.52207 8.37715 8.3782 9.52184 6.98812 9.52195ZM8.70305 25.51H5.26863C5.14431 25.51 5.02508 25.4606 4.93718 25.3727C4.84927 25.2848 4.79988 25.1655 4.79988 25.0412V11.9133C4.79988 11.789 4.84927 11.6697 4.93718 11.5818C5.02508 11.4939 5.14431 11.4445 5.26863 11.4445H8.70305C8.82737 11.4445 8.9466 11.4939 9.0345 11.5818C9.12241 11.6697 9.1718 11.789 9.1718 11.9133V25.0412C9.1718 25.1655 9.12241 25.2848 9.0345 25.3727C8.9466 25.4606 8.82737 25.51 8.70305 25.51Z" fill="#53CC6C"/>
</svg>
