<svg width="33" height="24" viewBox="0 0 33 24" fill="none" xmlns="http://www.w3.org/2000/svg">
<path d="M26.0776 23.9948C23.6753 23.9326 21.9368 23.0923 20.8621 21.474C19.7874 19.8556 19.25 17.9883 19.25 15.8721C19.25 13.4446 19.7557 11.1416 20.7672 8.96304C21.842 6.78453 23.2011 4.91722 24.8448 3.36114C26.5517 1.74281 28.3534 0.622433 30.25 0L33 3.82797C32.1782 4.38816 31.2931 5.13508 30.3448 6.06873C29.4598 6.94013 28.6379 7.87379 27.8793 8.86968C27.1839 9.86557 26.7098 10.8615 26.4569 11.8574C27.658 11.9196 28.7011 12.2308 29.5862 12.791C30.4713 13.289 31.1667 13.9736 31.6724 14.845C32.1782 15.6542 32.431 16.6501 32.431 17.8327C32.431 19.8868 31.7988 21.4428 30.5345 22.501C29.2701 23.5591 27.7845 24.0571 26.0776 23.9948ZM6.92241 23.9948C4.4569 23.9326 2.68678 23.0923 1.61207 21.474C0.537356 19.8556 0 17.9883 0 15.8721C0 13.4446 0.505747 11.1416 1.51724 8.96304C2.59195 6.78453 3.95115 4.91722 5.59483 3.36114C7.30172 1.74281 9.10345 0.622433 11 0L13.75 3.82797C12.9282 4.38816 12.0431 5.13508 11.0948 6.06873C10.2098 6.94013 9.41954 7.87379 8.72414 8.86968C8.02874 9.86557 7.52299 10.8615 7.2069 11.8574C8.40805 11.9196 9.45115 12.2308 10.3362 12.791C11.2213 13.289 11.9167 13.9736 12.4224 14.845C12.9282 15.6542 13.181 16.6501 13.181 17.8327C13.181 19.8868 12.5489 21.4428 11.2845 22.501C10.0201 23.4969 8.56609 23.9948 6.92241 23.9948Z" fill="#1C3433"/>
</svg>
