<svg width="40" height="40" viewBox="0 0 40 40" fill="none" xmlns="http://www.w3.org/2000/svg">
<path d="M1.66663 33.3333V31.6667C1.66663 25.2233 6.88997 20 13.3333 20C19.7766 20 25 25.2233 25 31.6667V33.3333" stroke="#53CC6C" stroke-width="2.5" stroke-linecap="round"/>
<path d="M21.6667 23.3333C21.6667 18.731 25.3976 15 30 15C34.6024 15 38.3333 18.731 38.3333 23.3333V24.1667" stroke="#53CC6C" stroke-width="2.5" stroke-linecap="round"/>
<path d="M13.3333 19.9998C17.0152 19.9998 20 17.015 20 13.3331C20 9.65126 17.0152 6.6665 13.3333 6.6665C9.65139 6.6665 6.66663 9.65126 6.66663 13.3331C6.66663 17.015 9.65139 19.9998 13.3333 19.9998Z" stroke="#53CC6C" stroke-width="2.5" stroke-linecap="round" stroke-linejoin="round"/>
<path d="M30 15C32.7614 15 35 12.7614 35 10C35 7.23858 32.7614 5 30 5C27.2386 5 25 7.23858 25 10C25 12.7614 27.2386 15 30 15Z" stroke="#53CC6C" stroke-width="2.5" stroke-linecap="round" stroke-linejoin="round"/>
</svg>
