<svg width="40" height="41" viewBox="0 0 40 41" fill="none" xmlns="http://www.w3.org/2000/svg">
<path d="M19.2137 2.86141C19.6141 2.35218 20.3856 2.35218 20.786 2.86141L23.8007 6.69576C24.0513 7.01445 24.4695 7.15033 24.8595 7.03979L29.5523 5.70975C30.1755 5.53311 30.7996 5.98657 30.8242 6.63388L31.0094 11.508C31.0248 11.9131 31.2833 12.2688 31.6638 12.4087L36.2421 14.091C36.8501 14.3144 37.0885 15.0481 36.7279 15.5863L34.0128 19.6383C33.7872 19.9751 33.7872 20.4148 34.0128 20.7516L36.7279 24.8037C37.0885 25.3418 36.8501 26.0755 36.2421 26.2989L31.6638 27.9812C31.2833 28.1211 31.0248 28.4768 31.0094 28.8819L30.8242 33.756C30.7996 34.4033 30.1755 34.8568 29.5523 34.6801L24.8595 33.3501C24.4695 33.2395 24.0513 33.3754 23.8007 33.6941L20.786 37.5285C20.3856 38.0377 19.6141 38.0377 19.2137 37.5285L16.199 33.6941C15.9484 33.3754 15.5303 33.2395 15.1402 33.3501L10.4475 34.6801C9.82428 34.8568 9.20014 34.4033 9.17555 33.756L8.99035 28.8819C8.97496 28.4768 8.7165 28.1211 8.33597 27.9812L3.75769 26.2989C3.14966 26.0755 2.91126 25.3418 3.27184 24.8037L5.98692 20.7516C6.21259 20.4148 6.21259 19.9751 5.98692 19.6383L3.27184 15.5863C2.91126 15.0481 3.14966 14.3144 3.75769 14.091L8.33597 12.4087C8.7165 12.2688 8.97496 11.9131 8.99035 11.508L9.17555 6.63388C9.20014 5.98657 9.82428 5.53311 10.4475 5.70975L15.1402 7.03979C15.5303 7.15033 15.9484 7.01445 16.199 6.69576L19.2137 2.86141Z" stroke="#53CC6C" stroke-width="2.5"/>
<path d="M15 20.1952L18.3333 23.5285L25 16.8618" stroke="#53CC6C" stroke-width="2.5" stroke-linecap="round" stroke-linejoin="round"/>
</svg>
